<svg width="24" height="24" viewBox="0 0 24 24" fill="none" xmlns="http://www.w3.org/2000/svg">
<path d="M21.0037 10.9999V16.002C21.0037 18.7646 18.7642 21.0041 16.0017 21.0041H7.99833C5.23576 21.0041 2.99625 18.7646 2.99625 16.002V7.99867C2.99625 5.23609 5.23576 2.99658 7.99833 2.99658H13.0004" stroke="#8E8E93" stroke-width="1.5" stroke-linecap="round" stroke-linejoin="round"/>
<path d="M14.5471 9.45322C15.9532 10.8598 15.9529 13.1399 14.5465 14.5462C13.1401 15.9525 10.8599 15.9525 9.45349 14.5462C8.04705 13.1399 8.0468 10.8598 9.45294 9.45322C10.1284 8.77755 11.0446 8.39795 12 8.39795C12.9554 8.39795 13.8716 8.77755 14.5471 9.45322" stroke="#8E8E93" stroke-width="1.5" stroke-linecap="round" stroke-linejoin="round"/>
<path d="M17.0021 4.49679H22.0042" stroke="#8E8E93" stroke-width="1.5" stroke-linecap="round" stroke-linejoin="round"/>
<path d="M19.5031 6.99818V1.99609" stroke="#8E8E93" stroke-width="1.5" stroke-linecap="round" stroke-linejoin="round"/>
</svg>
