<svg width="24" height="24" viewBox="0 0 24 24" fill="none" xmlns="http://www.w3.org/2000/svg">
<path d="M21.0037 10.9996V16.0017C21.0037 18.7642 18.7642 21.0038 16.0017 21.0038H7.99833C5.23576 21.0038 2.99625 18.7642 2.99625 16.0017V7.99834C2.99625 5.23576 5.23576 2.99625 7.99833 2.99625H13.0004" stroke="black" stroke-width="1.5" stroke-linecap="round" stroke-linejoin="round"/>
<path d="M14.5471 9.45295C15.9532 10.8595 15.9529 13.1397 14.5465 14.546C13.1401 15.9522 10.8599 15.9522 9.45349 14.546C8.04705 13.1397 8.0468 10.8595 9.45294 9.45295C10.1284 8.77728 11.0446 8.39767 12 8.39767C12.9554 8.39767 13.8716 8.77728 14.5471 9.45295" stroke="black" stroke-width="1.5" stroke-linecap="round" stroke-linejoin="round"/>
<path d="M17.0021 4.49687H22.0042" stroke="black" stroke-width="1.5" stroke-linecap="round" stroke-linejoin="round"/>
<path d="M19.5031 6.99792V1.99583" stroke="black" stroke-width="1.5" stroke-linecap="round" stroke-linejoin="round"/>
</svg>
