<svg width="34" height="34" viewBox="0 0 34 34" fill="none" xmlns="http://www.w3.org/2000/svg">
<path d="M31.3129 7.19543C30.8754 6.75057 30.2775 6.5 29.6535 6.5C29.0294 6.5 28.4315 6.75057 27.994 7.19543L17.2171 18.0997L17.2101 18.1052L13.9197 21.4328C13.7962 21.5568 13.5931 21.7643 13.4605 21.9023L13.1654 22.1854C13.0254 22.3265 12.8749 22.4569 12.7152 22.5754C12.6326 22.6363 12.541 22.6839 12.4436 22.7164C12.2955 22.7688 12.1335 22.7665 11.9869 22.7099C11.899 22.6782 11.8163 22.6337 11.7413 22.5779C11.5805 22.457 11.428 22.3255 11.2847 22.1844L10.9845 21.8888C10.874 21.7793 10.7649 21.6698 10.6289 21.5283L7.96029 18.8283V18.8283L6.00598 16.8497C5.5685 16.4048 4.9706 16.1543 4.34655 16.1543C3.7225 16.1543 3.1246 16.4048 2.68712 16.8497C1.77096 17.7816 1.77096 19.2754 2.68712 20.2073L6.58872 24.1544L6.59823 24.1619L7.28651 24.8579C7.42557 25.0034 7.56412 25.1434 7.70518 25.2819L8.05533 25.6284C8.37473 25.9399 8.71718 26.2269 9.07975 26.487C10.0055 27.1461 11.1139 27.5003 12.2506 27.5C12.815 27.4965 13.3753 27.4046 13.9112 27.2275C14.4292 27.0558 14.9193 26.8091 15.3658 26.4955C15.7321 26.2377 16.0758 25.9493 16.3933 25.6334L16.7934 25.2474C16.9075 25.1289 17.108 24.9239 17.2326 24.7974L18.3421 23.6754C18.3449 23.6734 18.3475 23.6712 18.3501 23.6689L31.3124 10.5535C32.229 9.62175 32.2292 8.12748 31.3129 7.19543Z" fill="#30D158"/>
</svg>
