<svg width="24" height="24" viewBox="0 0 24 24" fill="none" xmlns="http://www.w3.org/2000/svg">
<path d="M2 19C2 16.8 3.8 15 6 15H10C12.2 15 14 16.8 14 19" stroke="#8E8E93" stroke-width="1.5" stroke-linecap="round" stroke-linejoin="round"/>
<path d="M10.5 6.00015C11.9 7.40015 11.9 9.60015 10.5 10.9002C9.09999 12.2002 6.89999 12.3002 5.59999 10.9002C4.29999 9.50015 4.19999 7.40015 5.49999 6.00015C6.79999 4.60015 9.09999 4.70015 10.5 6.00015" stroke="#8E8E93" stroke-width="1.5" stroke-linecap="round" stroke-linejoin="round"/>
<path d="M16 14H19C20.7 14 22 15.3 22 17" stroke="#8E8E93" stroke-width="1.5" stroke-linecap="round" stroke-linejoin="round"/>
<path d="M19.3 6.70039C20.3 7.70039 20.3 9.30039 19.3 10.2004C18.3 11.1004 16.7 11.2004 15.8 10.2004C14.9 9.20039 14.8 7.60039 15.8 6.70039C16.7 5.80039 18.3 5.80039 19.3 6.70039" stroke="#8E8E93" stroke-width="1.5" stroke-linecap="round" stroke-linejoin="round"/>
</svg>
