<svg width="60" height="60" viewBox="0 0 60 60" fill="none" xmlns="http://www.w3.org/2000/svg">
<path d="M13 17.9256V59H8C4.13401 59 1 55.866 1 52V8C1 4.13401 4.13401 1 8 1H39V24.231C39 25.0329 38.1035 25.5087 37.4394 25.0591L20.5595 13.6328L20.5297 13.6127L20.4986 13.5947C17.1653 11.6716 13 14.0773 13 17.9256ZM47 42.0744V1H52C55.866 1 59 4.13401 59 8V52C59 55.866 55.866 59 52 59H21L20.999 35.769C20.999 34.9671 21.8955 34.4913 22.5596 34.9408L39.4406 46.3672L39.4703 46.3873L39.5014 46.4053C42.8347 48.3284 47 45.9227 47 42.0744Z" fill="url(#paint0_linear_915_19465)" stroke="#377E50" stroke-width="2"/>
<path d="M0 48V52C0 56.4183 3.58172 60 8 60H52C56.4183 60 60 56.4183 60 52V48C60 52.4183 56.4183 56 52 56H8C3.58172 56 0 52.4183 0 48Z" fill="#397E50"/>
<mask id="path-3-inside-1_915_19465" fill="white">
<path d="M0 8C0 3.58172 3.58172 0 8 0H52C56.4183 0 60 3.58172 60 8V48C60 52.4183 56.4183 56 52 56H8C3.58172 56 0 52.4183 0 48V8Z"/>
</mask>
<path d="M-2 8C-2 2.47715 2.47715 -2 8 -2H52C57.5228 -2 62 2.47715 62 8H58C58 4.68629 55.3137 2 52 2H8C4.68629 2 2 4.68629 2 8H-2ZM60 56H0H60ZM8 56C2.47715 56 -2 51.5228 -2 46V8C-2 2.47715 2.47715 -2 8 -2V2C4.68629 2 2 4.68629 2 8V48C2 52.4183 4.68629 56 8 56ZM52 -2C57.5228 -2 62 2.47715 62 8V46C62 51.5228 57.5228 56 52 56C55.3137 56 58 52.4183 58 48V8C58 4.68629 55.3137 2 52 2V-2Z" fill="#479E64" mask="url(#path-3-inside-1_915_19465)"/>
<rect x="14" y="56" width="6" height="4" fill="black"/>
<path d="M60 10V8C60 3.58172 56.4183 0 52 0H8C3.58172 0 0 3.58172 0 8V10C0 5.58172 3.58172 2 8 2H52C56.4183 2 60 5.58172 60 10Z" fill="#71B487"/>
<path d="M40 0H46V2H40V0Z" fill="black"/>
<path d="M38 0H40V5H38V0Z" fill="url(#paint1_linear_915_19465)"/>
<rect x="46" width="2" height="5" fill="url(#paint2_linear_915_19465)"/>
<defs>
<linearGradient id="paint0_linear_915_19465" x1="30" y1="0" x2="30" y2="60" gradientUnits="userSpaceOnUse">
<stop stop-color="#75FFA3"/>
<stop offset="1" stop-color="#479E64"/>
</linearGradient>
<linearGradient id="paint1_linear_915_19465" x1="39" y1="2" x2="39" y2="5" gradientUnits="userSpaceOnUse">
<stop stop-color="#71B487"/>
<stop offset="1" stop-color="#377E50"/>
</linearGradient>
<linearGradient id="paint2_linear_915_19465" x1="47" y1="2" x2="47" y2="5" gradientUnits="userSpaceOnUse">
<stop stop-color="#71B487"/>
<stop offset="1" stop-color="#377E50"/>
</linearGradient>
</defs>
</svg>
